# xmcd CD database file
#
# Track frame offsets:
#	150
#	12308
#	25623
#	39273
#	53640
#	66748
#	81785
#	93865
#	105810
#	120448
#	136073
#
# Disc length: 2015 seconds
#
# Revision: 3
# Processed by: cddbd v1.5.2PL0 Copyright (c) Steve Scherf et al.
# Submitted via: CDex 1.51
#
DISCID=7807dd0b
DTITLE=Sweethearts Of The Rodeo - One Time, One Night
DYEAR=1988
DGENRE=Country
TTITLE0=Satisfy You
TTITLE1=Blue To The Bone
TTITLE2=We Won't Let That River Come Between Us
TTITLE3=So Sad (To Watch Good Love Go Bad)
TTITLE4=Don't Look Down
TTITLE5=One Time, One Night
TTITLE6=You Never Talk Sweet
TTITLE7=I Feel Fine
TTITLE8=If I Never See Midnight Again
TTITLE9=Gone Again
TTITLE10=Until I Stop Dancing
EXTD=YEAR: 1988
EXTT0=
EXTT1=
EXTT2=
EXTT3=
EXTT4=
EXTT5=
EXTT6=
EXTT7=
EXTT8=
EXTT9=
EXTT10=
PLAYORDER=
